<svg id="visual"  width="1000" height="1080" xmlns="http://www.w3.org/2000/svg" xmlns:xlink="http://www.w3.org/1999/xlink" version="1.1"><path d="M0 676L45.7 681.7C91.3 687.3 182.7 698.7 274.2 709C365.7 719.3 457.3 728.7 548.8 732.3C640.3 736 731.7 734 823 722C914.3 710 1005.7 688 1097 699.2C1188.3 710.3 1279.7 754.7 1371.2 759.8C1462.7 765 1554.3 731 1645.8 725.3C1737.3 719.7 1828.7 742.3 1874.3 753.7L1920 765L1920 1081L1874.3 1081C1828.7 1081 1737.3 1081 1645.8 1081C1554.3 1081 1462.7 1081 1371.2 1081C1279.7 1081 1188.3 1081 1097 1081C1005.7 1081 914.3 1081 823 1081C731.7 1081 640.3 1081 548.8 1081C457.3 1081 365.7 1081 274.2 1081C182.7 1081 91.3 1081 45.7 1081L0 1081Z" fill="#6610f2"></path><path d="M0 769L45.7 779.7C91.3 790.3 182.7 811.7 274.2 811.8C365.7 812 457.3 791 548.8 787.3C640.3 783.7 731.7 797.3 823 809.8C914.3 822.3 1005.7 833.7 1097 820.3C1188.3 807 1279.7 769 1371.2 754.7C1462.7 740.3 1554.3 749.7 1645.8 771C1737.3 792.3 1828.7 825.7 1874.3 842.3L1920 859L1920 1081L1874.3 1081C1828.7 1081 1737.3 1081 1645.8 1081C1554.3 1081 1462.7 1081 1371.2 1081C1279.7 1081 1188.3 1081 1097 1081C1005.7 1081 914.3 1081 823 1081C731.7 1081 640.3 1081 548.8 1081C457.3 1081 365.7 1081 274.2 1081C182.7 1081 91.3 1081 45.7 1081L0 1081Z" fill="#9a5af7"></path><path d="M0 802L45.7 819.3C91.3 836.7 182.7 871.3 274.2 886.3C365.7 901.3 457.3 896.7 548.8 896.3C640.3 896 731.7 900 823 885C914.3 870 1005.7 836 1097 817.2C1188.3 798.3 1279.7 794.7 1371.2 811.7C1462.7 828.7 1554.3 866.3 1645.8 882.5C1737.3 898.7 1828.7 893.3 1874.3 890.7L1920 888L1920 1081L1874.3 1081C1828.7 1081 1737.3 1081 1645.8 1081C1554.3 1081 1462.7 1081 1371.2 1081C1279.7 1081 1188.3 1081 1097 1081C1005.7 1081 914.3 1081 823 1081C731.7 1081 640.3 1081 548.8 1081C457.3 1081 365.7 1081 274.2 1081C182.7 1081 91.3 1081 45.7 1081L0 1081Z" fill="#c191fb"></path><path d="M0 916L45.7 908C91.3 900 182.7 884 274.2 890.3C365.7 896.7 457.3 925.3 548.8 942C640.3 958.7 731.7 963.3 823 964.3C914.3 965.3 1005.7 962.7 1097 952.2C1188.3 941.7 1279.7 923.3 1371.2 919.2C1462.7 915 1554.3 925 1645.8 923.7C1737.3 922.3 1828.7 909.7 1874.3 903.3L1920 897L1920 1081L1874.3 1081C1828.7 1081 1737.3 1081 1645.8 1081C1554.3 1081 1462.7 1081 1371.2 1081C1279.7 1081 1188.3 1081 1097 1081C1005.7 1081 914.3 1081 823 1081C731.7 1081 640.3 1081 548.8 1081C457.3 1081 365.7 1081 274.2 1081C182.7 1081 91.3 1081 45.7 1081L0 1081Z" fill="#e2c8fe"></path><path d="M0 965L45.7 972.7C91.3 980.3 182.7 995.7 274.2 1004.7C365.7 1013.7 457.3 1016.3 548.8 1006.7C640.3 997 731.7 975 823 971.7C914.3 968.3 1005.7 983.7 1097 983C1188.3 982.3 1279.7 965.7 1371.2 962.3C1462.7 959 1554.3 969 1645.8 970.7C1737.3 972.3 1828.7 965.7 1874.3 962.3L1920 959L1920 1081L1874.3 1081C1828.7 1081 1737.3 1081 1645.8 1081C1554.3 1081 1462.7 1081 1371.2 1081C1279.7 1081 1188.3 1081 1097 1081C1005.7 1081 914.3 1081 823 1081C731.7 1081 640.3 1081 548.8 1081C457.3 1081 365.7 1081 274.2 1081C182.7 1081 91.3 1081 45.7 1081L0 1081Z" fill="#ffffff"></path></svg>